nColumns=19
nRows=52
DataType=double
version=3
OpenSimVersion=4.1
endheader
time	ground_force_1_vx	ground_force_1_vy	ground_force_1_vz	ground_force_1_px	ground_force_1_py	ground_force_1_pz	ground_force_1_mx	ground_force_1_my	ground_force_1_mz	ground_force_2_vx	ground_force_2_vy	ground_force_2_vz	ground_force_2_px	ground_force_2_py	ground_force_2_pz	ground_force_2_mx	ground_force_2_my	ground_force_2_mz
1.69	0	0	0	-0.00273605	0	0.000682979	0	0	0	241.455	970.874	14.3978	0.583313	0	-0.394761	-0	0.369195	-0
1.7	0	0	0	-0.00273607	0	0.000682892	0	0	0	231.948	737.25	2.53384	0.545519	0	-0.390171	0	-0.073156	0
1.71	0	0	0	-0.00273608	0	0.000682806	0	0	0	201.832	513.456	-2.02669	0.504798	0	-0.386018	-0	1.25513	-0
1.72	0	0	0	-0.0027361	0	0.00068272	0	0	0	162.313	313.123	-9.13305	0.445146	0	-0.383702	-0	3.92531	-0
1.73	0	0	0	-0.00273612	0	0.000682635	0	0	0	113.9	155.7	-15.9058	0.326961	0	-0.383894	-0	5.51718	-0
1.74	0	0	0	-0.00273613	0	0.000682551	0	0	0	60.5012	63.2268	-15.7447	0.0121908	0	-0.363213	-0	3.82489	-0
1.75	0	0	0	-0.00273615	0	0.000682467	0	0	0	0	0	0	-0.0027362	0	0.00068255	0	0	0
1.76	0	0	0	-0.00273617	0	0.000682384	0	0	0	0	0	0	-0.00273622	0	0.000682468	0	0	0
1.77	0	0	0	-0.00273618	0	0.000682302	0	0	0	0	0	0	-0.00273623	0	0.000682386	0	0	0
1.78	0	0	0	-0.0027362	0	0.000682221	0	0	0	0	0	0	-0.00273625	0	0.000682305	0	0	0
1.79	0	0	0	-0.00273621	0	0.00068214	0	0	0	0	0	0	-0.00273627	0	0.000682225	0	0	0
1.8	0	0	0	-0.00273623	0	0.00068206	0	0	0	0	0	0	-0.00273628	0	0.000682145	0	0	0
1.81	0	0	0	-0.00273624	0	0.000681981	0	0	0	0	0	0	-0.0027363	0	0.000682067	0	0	0
1.82	-33.0355	113.084	-10.2615	1.13468	0	-0.2804	0	-3.84724	0	0	0	0	-0.00273631	0	0.000681989	0	0	0
1.83	-60.6174	318.604	-31.6575	1.05636	0	-0.312072	0	-3.05468	0	0	0	0	-0.00273633	0	0.000681912	0	0	0
1.84	-93.327	690.045	-27.432	1.04005	0	-0.314023	-0	0.422237	-0	0	0	0	-0.00273635	0	0.000681835	0	0	0
1.85	-142.549	1097.93	19.9844	1.03018	0	-0.313598	-0	4.43828	-0	0	0	0	-0.00273636	0	0.00068176	0	0	0
1.86	-204.98	1332.87	70.9598	1.01997	0	-0.312596	-0	6.24631	-0	0	0	0	-0.00273638	0	0.000681685	0	0	0
1.87	-257.847	1394.12	47.0538	1.00462	0	-0.311106	-0	4.96241	-0	0	0	0	-0.00273639	0	0.000681611	0	0	0
1.88	-279.509	1428.88	-34.6867	0.979918	0	-0.308683	-0	1.95521	-0	0	0	0	-0.0027364	0	0.000681538	0	0	0
1.89	-257.802	1504.05	-65.9345	0.945393	0	-0.30513	0	-0.770459	0	0	0	0	-0.00273642	0	0.000681466	0	0	0
1.9	-209.001	1589.58	-45.5791	0.905687	0	-0.301327	0	-2.27189	0	0	0	0	-0.00273643	0	0.000681395	0	0	0
1.91	-143.266	1633.97	-59.7509	0.865429	0	-0.29855	0	-2.86447	0	0	0	0	-0.00273645	0	0.000681324	0	0	0
1.92	-72.343	1622.5	-101.785	0.825151	0	-0.297223	0	-3.24166	0	0	0	0	-0.00273646	0	0.000681255	0	0	0
1.93	-1.45877	1566.98	-95.0986	0.782942	0	-0.296997	0	-3.80596	0	0	0	0	-0.00273648	0	0.000681186	0	0	0
1.94	74.2385	1466.01	-49.9238	0.73764	0	-0.297505	0	-4.59917	0	0	0	0	-0.00273649	0	0.000681118	0	0	0
1.95	148.368	1311.67	-29.2748	0.690408	0	-0.298556	0	-5.43565	0	0	0	0	-0.0027365	0	0.000681052	0	0	0
1.96	197.582	1110.33	-24.6531	0.644286	0	-0.299833	0	-5.91633	0	0	0	0	-0.00273652	0	0.000680986	0	0	0
1.97	208.459	880.212	-4.00923	0.60216	0	-0.300801	0	-5.48094	0	0	0	0	-0.00273653	0	0.000680921	0	0	0
1.98	188.46	643.766	17.9671	0.564264	0	-0.300953	0	-4.02891	0	0	0	0	-0.00273654	0	0.000680857	0	0	0
1.99	151.942	420.499	23.7508	0.525765	0	-0.299837	0	-2.87027	0	0	0	0	-0.00273655	0	0.000680794	0	0	0
2	111.396	231.068	15.9362	0.472245	0	-0.295854	0	-4.13513	0	0	0	0	-0.00273657	0	0.000680732	0	0	0
2.01	68.9952	101.721	1.63279	0.352119	0	-0.276097	0	-7.68352	0	0	0	0	-0.00273658	0	0.000680671	0	0	0
2.02	0	0	0	-0.00273653	0	0.000680515	0	0	0	0	0	0	-0.00273659	0	0.000680611	0	0	0
2.03	0	0	0	-0.00273654	0	0.000680456	0	0	0	0	0	0	-0.0027366	0	0.000680552	0	0	0
2.04	0	0	0	-0.00273655	0	0.000680397	0	0	0	0	0	0	-0.00273661	0	0.000680494	0	0	0
2.05	0	0	0	-0.00273656	0	0.00068034	0	0	0	0	0	0	-0.00273663	0	0.000680437	0	0	0
2.06	0	0	0	-0.00273658	0	0.000680283	0	0	0	0	0	0	-0.00273664	0	0.000680381	0	0	0
2.07	0	0	0	-0.00273659	0	0.000680228	0	0	0	0	0	0	-0.00273665	0	0.000680326	0	0	0
2.08	0	0	0	-0.0027366	0	0.000680174	0	0	0	0	0	0	-0.00273666	0	0.000680272	0	0	0
2.09	0	0	0	-0.00273661	0	0.000680121	0	0	0	0	0	0	-0.00273667	0	0.000680219	0	0	0
2.1	0	0	0	-0.00273662	0	0.000680068	0	0	0	0	0	0	-0.00273668	0	0.000680167	0	0	0
2.11	0	0	0	-0.00273663	0	0.000680017	0	0	0	-20.991	106.662	-11.8895	1.04182	0	-0.398058	0	-0.448784	0
2.12	0	0	0	-0.00273664	0	0.000679968	0	0	0	-29.9004	276.047	-11.976	1.04879	0	-0.392107	0	-2.04509	0
2.13	0	0	0	-0.00273665	0	0.000679919	0	0	0	-46.424	544.892	2.15679	1.05024	0	-0.389669	0	-0.974764	0
2.14	0	0	0	-0.00273666	0	0.000679871	0	0	0	-95.4588	826.268	26.4174	1.04929	0	-0.38936	-0	1.1522	-0
2.15	0	0	0	-0.00273667	0	0.000679824	0	0	0	-172.141	1010.38	40.4869	1.04373	0	-0.390925	-0	2.09684	-0
2.16	0	0	0	-0.00273667	0	0.000679779	0	0	0	-241.368	1113.66	24.8136	1.02908	0	-0.393818	-0	1.2553	-0
2.17	0	0	0	-0.00273668	0	0.000679734	0	0	0	-275.948	1233.89	10.5713	1.00228	0	-0.396734	0	-0.292478	0
2.18	0	0	0	-0.00273669	0	0.000679691	0	0	0	-265.27	1398.49	42.2919	0.965697	0	-0.398588	0	-1.26273	0
2.19	0	0	0	-0.0027367	0	0.000679649	0	0	0	-221.073	1554.39	88.889	0.924851	0	-0.399613	0	-1.23374	0
2.2	0	0	0	-0.00273671	0	0.000679608	0	0	0	-153.885	1648.55	98.4421	0.882781	0	-0.400538	0	-0.493912	0
